<svg width="44" height="63" viewBox="0 0 44 63" fill="none" xmlns="http://www.w3.org/2000/svg">
<g clip-path="url(#clip0_71_506)">
<g filter="url(#filter0_d_71_506)">
<path d="M23.2248 31.5302C21.9058 31.1758 20.6434 30.638 19.4749 29.9325C19.2479 29.794 19.0439 29.6211 18.8701 29.4201L19.2935 35.0871L19.8076 42.412L20.1402 46.8431V48.8325L20.6846 56.4287L21.7127 63L22.6199 56.4589L23.1643 48.8928V46.9938L23.4667 42.7436L24.1925 36.8957L24.5553 31.9522L23.2248 31.5302Z" fill="#B26136"/>
<path d="M40.3105 3.55694C40.2988 4.03858 40.1915 4.51313 39.9947 4.95319C39.798 5.39325 39.5157 5.79009 39.1643 6.12081C38.8128 6.45153 38.3991 6.70956 37.947 6.88001C37.495 7.05046 37.0135 7.12994 36.5304 7.11388H29.8473C28.9323 7.10438 28.0449 7.42603 27.3498 8.01917C26.6546 8.6123 26.1989 9.43663 26.0672 10.3392V11.1531L25.4624 18.9L25.3112 21.1005L24.9785 25.5014L24.5249 31.9522L23.2246 31.5301C21.9056 31.1758 20.6432 30.638 19.4748 29.9325C19.2478 29.794 19.0437 29.6211 18.87 29.4201L18.6583 26.4057L18.2954 21.2512L18.1442 19.0206L17.5394 11.2134V10.2488C17.3626 9.38491 16.8876 8.61014 16.1969 8.05936C15.5062 7.50858 14.6436 7.21667 13.7593 7.23445H7.10638C6.61322 7.25073 6.12186 7.16742 5.66183 6.98952C5.20181 6.81163 4.78263 6.54283 4.42951 6.19929C4.07639 5.85575 3.79663 5.44457 3.60704 4.99048C3.41746 4.53639 3.32197 4.04877 3.32631 3.55694C3.35793 2.5868 3.77305 1.66847 4.48115 1.00216C5.18926 0.335855 6.13292 -0.0243784 7.10638 1.92667e-06H36.5304C37.5039 -0.0243784 38.4476 0.335855 39.1557 1.00216C39.8638 1.66847 40.2789 2.5868 40.3105 3.55694Z" fill="#B26136"/>
<path d="M41.2481 18.5383C39.4732 15.2769 36.7688 12.6126 33.4763 10.8818C32.7232 10.4817 31.9454 10.1293 31.1478 9.82679C30.5521 9.61008 29.9141 9.53465 29.2841 9.60647C28.6541 9.67829 28.0496 9.89539 27.5184 10.2406C26.9873 10.5857 26.5441 11.0495 26.224 11.5951C25.9039 12.1406 25.7156 12.753 25.6742 13.3837C25.6302 14.1598 25.8052 14.9326 26.1793 15.6145C26.5535 16.2965 27.1118 16.8603 27.7911 17.2421C28.7546 17.8054 29.6056 18.5411 30.301 19.4124C32.4932 22.5454 33.5394 26.3337 33.2646 30.1435V32.2837C33.4704 36.0388 32.4055 39.7541 30.2406 42.834C29.396 43.8846 28.3357 44.7429 27.1308 45.3512C25.9259 45.9595 24.6044 46.3037 23.255 46.3608H22.0151C21.4213 46.4077 20.8247 46.4077 20.2309 46.3608C18.9397 46.2499 17.686 45.8708 16.5506 45.2478C15.4151 44.6248 14.4232 43.7718 13.6385 42.7435C11.4821 39.6596 10.418 35.9473 10.6144 32.1933V29.8722C10.4084 26.1265 11.4737 22.4207 13.6385 19.3522C14.2491 18.6016 14.9735 17.9507 15.7856 17.423C16.4339 17.0291 16.9641 16.4688 17.3206 15.8006C17.677 15.1324 17.8467 14.3809 17.8117 13.6249C17.7778 12.9926 17.5963 12.377 17.2817 11.8269C16.9671 11.2768 16.5281 10.8075 15.9996 10.4563C15.4711 10.1051 14.8676 9.88166 14.2372 9.80377C13.6069 9.72588 12.9669 9.79569 12.3684 10.0077C11.7333 10.2789 11.1285 10.5502 10.5237 10.8818C7.23119 12.6126 4.52681 15.2769 2.7519 18.5383C0.846743 22.1057 -0.1012 26.1034 8.66782e-06 30.1435V32.3139C-0.0507339 36.2695 0.917599 40.1719 2.81238 43.6478C4.6063 46.8902 7.32037 49.5326 10.6144 51.244C13.7791 52.8765 17.2737 53.7731 20.8357 53.8665H22.7711C26.5372 53.8585 30.2475 52.9597 33.5973 51.244C36.8707 49.522 39.5553 46.867 41.3086 43.6177C43.1601 40.0759 44.0858 36.1259 44 32.133V30.1435C44.1067 26.1028 43.1585 22.1038 41.2481 18.5383Z" fill="#4B5548"/>
<path d="M29.8172 32.2536C28.2984 30.8712 26.491 29.8417 24.5251 29.2393L23.2247 28.8172C21.9057 28.4629 20.6434 27.9251 19.4749 27.2196C19.2479 27.0811 19.0439 26.9082 18.8701 26.7072C18.653 26.5117 18.477 26.2751 18.3524 26.0112C18.2278 25.7473 18.1571 25.4613 18.1443 25.1699C18.1129 24.9499 18.1129 24.7267 18.1443 24.5067C18.3406 23.7592 18.4322 22.9883 18.4165 22.2158L18.1443 18.5986L17.3278 18.9C15.98 19.4053 14.8049 20.2838 13.9409 21.4321C13.1573 22.5204 12.7439 23.8303 12.7615 25.1699C12.801 26.5382 13.2358 27.8661 14.0135 28.9942C14.7913 30.1224 15.8791 31.0029 17.1464 31.5302C17.7956 31.8658 18.4618 32.1676 19.1423 32.4345C19.8378 32.7058 20.6543 33.0072 21.5313 33.2785C22.379 33.5431 23.2075 33.8654 24.011 34.2431C24.4829 34.4409 24.9295 34.6939 25.3416 34.9967C25.697 35.2591 25.9802 35.6066 26.1652 36.007C26.3502 36.4074 26.431 36.8478 26.4 37.2876C26.422 37.7048 26.3363 38.1206 26.1509 38.4953C25.9656 38.87 25.687 39.1911 25.3416 39.4278C24.8327 39.791 24.2396 40.0192 23.6179 40.0909C23.206 40.1399 22.7898 40.1399 22.378 40.0909C21.4499 40.1189 20.5252 39.9653 19.6564 39.6388C19.0374 39.3758 18.511 38.9351 18.1443 38.3727C17.5823 37.5858 16.8308 36.9525 15.9588 36.5311C15.0868 36.1097 14.1225 35.9137 13.1546 35.9613H12.0962C12.0625 37.5176 12.5171 39.0456 13.3966 40.3321C14.318 41.6742 15.61 42.7213 17.1162 43.3464C18.0781 43.7777 19.0961 44.072 20.1402 44.2206C20.9278 44.3683 21.7279 44.439 22.5292 44.4316C22.8409 44.4626 23.155 44.4626 23.4667 44.4316C25.6259 44.4631 27.7408 43.8201 29.5148 42.5928C30.3381 41.9941 31.0006 41.2022 31.4437 40.2874C31.8868 39.3725 32.0967 38.3629 32.055 37.3479C32.0722 36.3882 31.8811 35.4361 31.4949 34.5568C31.1087 33.6776 30.5364 32.8919 29.8172 32.2536ZM30.6942 21.7938C29.8483 20.5212 28.636 19.5335 27.2165 18.9603C26.5704 18.6588 25.8901 18.4361 25.1904 18.2971L24.9787 22.8488C25.1514 22.9418 25.3136 23.053 25.4626 23.1804C25.6545 23.3316 25.8183 23.5153 25.9464 23.723C26.5672 24.4615 27.3526 25.0451 28.24 25.4272C29.1274 25.8093 30.0921 25.9792 31.0571 25.9235H31.9038C31.93 24.4565 31.5082 23.0162 30.6942 21.7938Z" fill="#D97941"/>
</g>
</g>
<defs>
<filter id="filter0_d_71_506" x="-4.00732" y="-0.00115967" width="52.0154" height="71.0012" filterUnits="userSpaceOnUse" color-interpolation-filters="sRGB">
<feFlood flood-opacity="0" result="BackgroundImageFix"/>
<feColorMatrix in="SourceAlpha" type="matrix" values="0 0 0 0 0 0 0 0 0 0 0 0 0 0 0 0 0 0 127 0" result="hardAlpha"/>
<feOffset dy="4"/>
<feGaussianBlur stdDeviation="2"/>
<feComposite in2="hardAlpha" operator="out"/>
<feColorMatrix type="matrix" values="0 0 0 0 0 0 0 0 0 0 0 0 0 0 0 0 0 0 0.25 0"/>
<feBlend mode="normal" in2="BackgroundImageFix" result="effect1_dropShadow_71_506"/>
<feBlend mode="normal" in="SourceGraphic" in2="effect1_dropShadow_71_506" result="shape"/>
</filter>
<clipPath id="clip0_71_506">
<rect width="44" height="63" fill="white"/>
</clipPath>
</defs>
</svg>
