<svg xmlns="http://www.w3.org/2000/svg" viewBox="0 0 14.55 20.9"><defs><style>.cls-1{fill:#b26136;}.cls-2{fill:#4b5548;}.cls-3{fill:#d97941;}</style></defs><g id="Layer_2" data-name="Layer 2"><g id="Layer_1-2" data-name="Layer 1"><path class="cls-1" d="M7.68,10.46a4.81,4.81,0,0,1-1.24-.53.85.85,0,0,1-.2-.17l.14,1.88.17,2.43.11,1.47,0,.66.18,2.52.34,2.18.3-2.17.18-2.51,0-.63.1-1.41L8,12.24l.12-1.64Z"/><path class="cls-1" d="M13.33,1.18a1.21,1.21,0,0,1-1.25,1.18H9.87A1.25,1.25,0,0,0,8.62,3.43l0,.27L8.42,6.27,8.37,7,8.26,8.46,8.11,10.6l-.43-.14a4.81,4.81,0,0,1-1.24-.53.85.85,0,0,1-.2-.17l-.07-1L6.05,7.05,6,6.31,5.8,3.72l0-.32a1.25,1.25,0,0,0-1.25-1H2.35A1.21,1.21,0,0,1,1.1,1.18,1.22,1.22,0,0,1,2.35,0h9.73A1.22,1.22,0,0,1,13.33,1.18Z"/><path class="cls-2" d="M13.64,6.15a6.23,6.23,0,0,0-2.57-2.54,6.71,6.71,0,0,0-.77-.35A1.35,1.35,0,0,0,8.49,4.44h0a1.38,1.38,0,0,0,.7,1.28,3,3,0,0,1,.83.72A5.53,5.53,0,0,1,11,10v.71a5.57,5.57,0,0,1-1,3.5,3.13,3.13,0,0,1-2.31,1.17l-.41,0a3.73,3.73,0,0,1-.59,0,3.07,3.07,0,0,1-2.18-1.2,5.61,5.61,0,0,1-1-3.5V9.91a5.54,5.54,0,0,1,1-3.49,3.08,3.08,0,0,1,.71-.64,1.4,1.4,0,0,0,.67-1.26v0A1.35,1.35,0,0,0,4.09,3.32c-.21.09-.41.18-.61.29A6.23,6.23,0,0,0,.91,6.15,7.78,7.78,0,0,0,0,10v.72a7.67,7.67,0,0,0,.93,3.76A6.24,6.24,0,0,0,3.51,17a7.8,7.8,0,0,0,3.38.87h.64A7.87,7.87,0,0,0,11.11,17a6.16,6.16,0,0,0,2.55-2.53,7.88,7.88,0,0,0,.89-3.81V10A7.74,7.74,0,0,0,13.64,6.15Z"/><path class="cls-3" d="M9.86,10.7a4.6,4.6,0,0,0-1.75-1l-.43-.14a4.81,4.81,0,0,1-1.24-.53.85.85,0,0,1-.2-.17A.73.73,0,0,1,6,8.35a.78.78,0,0,1,0-.22,2.78,2.78,0,0,0,.09-.76l-.09-1.2-.27.1a2.5,2.5,0,0,0-1.12.84,2.08,2.08,0,0,0-.39,1.24,2.36,2.36,0,0,0,1.45,2.11,7,7,0,0,0,.66.3c.23.09.5.19.79.28a6.42,6.42,0,0,1,.82.32,2.14,2.14,0,0,1,.44.25.87.87,0,0,1,.35.76.81.81,0,0,1-.35.71,1.22,1.22,0,0,1-.57.22,1.73,1.73,0,0,1-.41,0,2.35,2.35,0,0,1-.9-.15A1.12,1.12,0,0,1,6,12.73a1.91,1.91,0,0,0-1.65-.8H4a2.48,2.48,0,0,0,.43,1.45,2.79,2.79,0,0,0,1.23,1,3.72,3.72,0,0,0,1,.29,4.07,4.07,0,0,0,.79.07,1.56,1.56,0,0,0,.31,0,3.42,3.42,0,0,0,2-.61,2.05,2.05,0,0,0,.84-1.74A2.21,2.21,0,0,0,9.86,10.7Zm.29-3.47A2.51,2.51,0,0,0,9,6.29a2.93,2.93,0,0,0-.67-.22L8.26,7.58a.91.91,0,0,1,.16.11.69.69,0,0,1,.16.18,2.05,2.05,0,0,0,1.69.73h.28A2.4,2.4,0,0,0,10.15,7.23Z"/></g></g></svg>